<svg width="28" height="28" viewBox="0 0 28 28" fill="none" xmlns="http://www.w3.org/2000/svg">
<g clip-path="url(#clip0)">
<path d="M23.0413 0.350834H4.95765C4.30625 0.350028 3.66109 0.477736 3.05912 0.726645C2.45714 0.975554 1.91019 1.34077 1.44958 1.80138C0.988966 2.262 0.623747 2.80895 0.374838 3.41092C0.12593 4.01289 -0.00177889 4.65806 -0.00097277 5.30946V22.6905C-0.00177889 23.3419 0.12593 23.987 0.374838 24.589C0.623747 25.191 0.988966 25.7379 1.44958 26.1985C1.91019 26.6591 2.45714 27.0244 3.05912 27.2733C3.66109 27.5222 4.30625 27.6499 4.95765 27.6491H23.0413C23.6927 27.6499 24.3378 27.5222 24.9398 27.2733C25.5418 27.0244 26.0887 26.6591 26.5494 26.1985C27.01 25.7379 27.3752 25.191 27.6241 24.589C27.873 23.987 28.0007 23.3419 27.9999 22.6905V5.30946C28.0007 4.65806 27.873 4.01289 27.6241 3.41092C27.3752 2.80895 27.01 2.262 26.5494 1.80138C26.0887 1.34077 25.5418 0.975554 24.9398 0.726645C24.3378 0.477736 23.6927 0.350028 23.0413 0.350834ZM26.8195 22.2355C26.8228 22.7918 26.716 23.3433 26.5054 23.8582C26.2948 24.3732 25.9845 24.8414 25.5923 25.236C25.2001 25.6306 24.7338 25.9438 24.2202 26.1576C23.7066 26.3714 23.1557 26.4816 22.5994 26.4818H5.4004C4.27794 26.4802 3.20191 26.0336 2.40821 25.2399C1.61451 24.4462 1.1679 23.3702 1.16628 22.2477V5.75133C1.1679 4.62887 1.61451 3.55285 2.40821 2.75915C3.20191 1.96544 4.27794 1.51883 5.4004 1.51721H22.5854C23.7083 1.51744 24.7851 1.96361 25.5791 2.75761C26.3731 3.55161 26.8193 4.62845 26.8195 5.75133V22.2355ZM11.0695 13.125L14.3377 19.4005C14.3972 19.4958 14.3613 19.5868 14.2685 19.5868H12.2359C12.109 19.5868 12.0495 19.5553 11.9944 19.4363C11.248 17.8963 10.4859 16.3563 9.70628 14.7017H9.6844C8.96699 16.295 8.22696 17.8781 7.46453 19.4503C7.41115 19.5413 7.35165 19.5772 7.2554 19.5772H5.33128C5.21315 19.5772 5.2044 19.4818 5.2639 19.4136L8.45853 13.3245L5.3689 7.16359C5.2954 7.06821 5.3689 6.99908 5.43628 6.99908H7.44178C7.5599 6.99908 7.60628 7.02271 7.65178 7.12596C8.39635 8.67816 9.1241 10.2384 9.8349 11.8063H9.85678C10.5358 10.2663 11.2839 8.66683 12.0032 7.13996C12.0627 7.04458 12.0985 6.98508 12.2132 6.98508H14.09C14.1854 6.98508 14.2222 7.05858 14.1635 7.14958L11.0695 13.125ZM14.9108 15.0255C14.9108 12.3095 16.7159 10.185 19.5868 10.185C19.8327 10.185 19.9604 10.185 20.1932 10.2086V7.11896C20.1932 7.04546 20.2518 6.99996 20.3113 6.99996H22.1523C22.2477 6.99996 22.2713 7.03583 22.2713 7.09096V17.8053C22.2713 18.1195 22.2713 18.5158 22.3308 18.9437C22.3308 19.0172 22.3072 19.0391 22.2354 19.0767C21.3025 19.52 20.2828 19.7504 19.2499 19.7513C16.7159 19.7645 14.9108 18.2017 14.9108 15.0255ZM20.194 12.04C19.9785 11.9576 19.7492 11.9175 19.5185 11.9218C18.0477 11.9218 17.0222 13.0558 17.0222 14.9345C17.0222 17.0808 18.0695 17.9418 19.3917 17.9418C19.669 17.9418 19.9753 17.9103 20.194 17.815V12.04Z" fill="white"/>
</g>
<defs>
<clipPath id="clip0">
<rect width="28" height="28" fill="white"/>
</clipPath>
</defs>
</svg>
