<svg width="120" height="114" viewBox="0 0 120 114" fill="none" xmlns="http://www.w3.org/2000/svg">
<circle cx="11" cy="5" r="5" fill="white" fill-opacity="0.08"/>
<circle cx="11" cy="31" r="5" fill="white" fill-opacity="0.08"/>
<circle cx="11" cy="57" r="5" fill="white" fill-opacity="0.08"/>
<circle cx="11" cy="83" r="5" fill="white" fill-opacity="0.08"/>
<circle cx="11" cy="109" r="5" fill="white" fill-opacity="0.08"/>
<circle cx="37" cy="5" r="5" fill="white" fill-opacity="0.08"/>
<circle cx="37" cy="31" r="5" fill="white" fill-opacity="0.08"/>
<circle cx="37" cy="57" r="5" fill="white" fill-opacity="0.08"/>
<circle cx="37" cy="83" r="5" fill="white" fill-opacity="0.08"/>
<circle cx="37" cy="109" r="5" fill="white" fill-opacity="0.08"/>
<circle cx="63" cy="5" r="5" fill="white" fill-opacity="0.08"/>
<circle cx="89" cy="5" r="5" fill="white" fill-opacity="0.08"/>
<circle cx="115" cy="5" r="5" fill="white" fill-opacity="0.08"/>
<circle cx="63" cy="31" r="5" fill="white" fill-opacity="0.08"/>
<circle cx="89" cy="31" r="5" fill="white" fill-opacity="0.08"/>
<circle cx="115" cy="31" r="5" fill="white" fill-opacity="0.08"/>
<circle cx="63" cy="57" r="5" fill="white" fill-opacity="0.08"/>
<circle cx="89" cy="57" r="5" fill="white" fill-opacity="0.08"/>
<circle cx="115" cy="57" r="5" fill="white" fill-opacity="0.08"/>
<circle cx="63" cy="83" r="5" fill="white" fill-opacity="0.08"/>
<circle cx="63" cy="109" r="5" fill="white" fill-opacity="0.08"/>
<circle cx="89" cy="83" r="5" fill="white" fill-opacity="0.08"/>
<circle cx="89" cy="109" r="5" fill="white" fill-opacity="0.08"/>
<circle cx="115" cy="83" r="5" fill="white" fill-opacity="0.08"/>
<circle cx="115" cy="109" r="5" fill="white" fill-opacity="0.08"/>
</svg>
