<svg width="32" height="29" viewBox="0 0 32 29" fill="none" xmlns="http://www.w3.org/2000/svg">
<path d="M16 0L6.98187 0.9535L0 10.326L16 28.9578L32 10.3259L25.0182 0.9535L16 0Z" fill="#FDB300"/>
<path d="M0 10.3259L16 28.9577L6.48075 10.3259H0Z" fill="#EB6C00"/>
<path d="M25.5191 10.3259L16 28.9577L32 10.3259H25.5191Z" fill="#EB6C00"/>
<path d="M6.48096 10.3259L16.0002 28.9577L25.5195 10.3259H6.48096Z" fill="#FDAD00"/>
<path d="M6.98172 0.9535L6.48047 10.326L15.9998 0L6.98172 0.9535Z" fill="#FDD231"/>
<path d="M25.5191 10.326L25.0181 0.9535L16 0L25.5191 10.326Z" fill="#FDD231"/>
<path d="M25.5191 10.3261H31.9998L25.0181 0.953613L25.5191 10.3261Z" fill="#FDAD00"/>
<path d="M0 10.3261H6.48075L6.98187 0.953613L0 10.3261Z" fill="#FDAD00"/>
<path d="M16.0002 0L6.48096 10.3259H25.5195L16.0002 0Z" fill="#FEEEB7"/>
</svg>
